<svg width="137" height="137" viewBox="0 0 137 137" fill="none" xmlns="http://www.w3.org/2000/svg">
<rect width="137" height="137" rx="2" fill="#0D1117"/>
<path d="M0 2C0 0.895431 0.895431 0 2 0H9C10.1046 0 11 0.895431 11 2V9C11 10.1046 10.1046 11 9 11H2C0.895431 11 0 10.1046 0 9V2Z" fill="#1B4332"/>
<path d="M0 2C0 0.895431 0.895431 0 2 0H9C10.1046 0 11 0.895431 11 2V9C11 10.1046 10.1046 11 9 11H2C0.895431 11 0 10.1046 0 9V2Z" fill="#1B4332"/>
<path d="M14 2C14 0.895431 14.8954 0 16 0H23C24.1046 0 25 0.895431 25 2V9C25 10.1046 24.1046 11 23 11H16C14.8954 11 14 10.1046 14 9V2Z" fill="#1B4332"/>
<path d="M14 2C14 0.895431 14.8954 0 16 0H23C24.1046 0 25 0.895431 25 2V9C25 10.1046 24.1046 11 23 11H16C14.8954 11 14 10.1046 14 9V2Z" fill="#1B4332"/>
<path d="M28 2C28 0.895431 28.8954 0 30 0H37C38.1046 0 39 0.895431 39 2V9C39 10.1046 38.1046 11 37 11H30C28.8954 11 28 10.1046 28 9V2Z" fill="#1B4332"/>
<path d="M28 2C28 0.895431 28.8954 0 30 0H37C38.1046 0 39 0.895431 39 2V9C39 10.1046 38.1046 11 37 11H30C28.8954 11 28 10.1046 28 9V2Z" fill="#1B4332"/>
<path d="M42 2C42 0.895431 42.8954 0 44 0H51C52.1046 0 53 0.895431 53 2V9C53 10.1046 52.1046 11 51 11H44C42.8954 11 42 10.1046 42 9V2Z" fill="#1B4332"/>
<path d="M42 2C42 0.895431 42.8954 0 44 0H51C52.1046 0 53 0.895431 53 2V9C53 10.1046 52.1046 11 51 11H44C42.8954 11 42 10.1046 42 9V2Z" fill="#1B4332"/>
<path d="M56 2C56 0.895431 56.8954 0 58 0H65C66.1046 0 67 0.895431 67 2V9C67 10.1046 66.1046 11 65 11H58C56.8954 11 56 10.1046 56 9V2Z" fill="#1B4332"/>
<path d="M56 2C56 0.895431 56.8954 0 58 0H65C66.1046 0 67 0.895431 67 2V9C67 10.1046 66.1046 11 65 11H58C56.8954 11 56 10.1046 56 9V2Z" fill="#1B4332"/>
<path d="M70 2C70 0.895431 70.8954 0 72 0H79C80.1046 0 81 0.895431 81 2V9C81 10.1046 80.1046 11 79 11H72C70.8954 11 70 10.1046 70 9V2Z" fill="#1B4332"/>
<path d="M70 2C70 0.895431 70.8954 0 72 0H79C80.1046 0 81 0.895431 81 2V9C81 10.1046 80.1046 11 79 11H72C70.8954 11 70 10.1046 70 9V2Z" fill="#1B4332"/>
<path d="M84 2C84 0.895431 84.8954 0 86 0H93C94.1046 0 95 0.895431 95 2V9C95 10.1046 94.1046 11 93 11H86C84.8954 11 84 10.1046 84 9V2Z" fill="#1B4332"/>
<path d="M84 2C84 0.895431 84.8954 0 86 0H93C94.1046 0 95 0.895431 95 2V9C95 10.1046 94.1046 11 93 11H86C84.8954 11 84 10.1046 84 9V2Z" fill="#1B4332"/>
<path d="M98 2C98 0.895431 98.8954 0 100 0H107C108.105 0 109 0.895431 109 2V9C109 10.1046 108.105 11 107 11H100C98.8954 11 98 10.1046 98 9V2Z" fill="#1B4332"/>
<path d="M98 2C98 0.895431 98.8954 0 100 0H107C108.105 0 109 0.895431 109 2V9C109 10.1046 108.105 11 107 11H100C98.8954 11 98 10.1046 98 9V2Z" fill="#1B4332"/>
<path d="M112 2C112 0.895431 112.895 0 114 0H121C122.105 0 123 0.895431 123 2V9C123 10.1046 122.105 11 121 11H114C112.895 11 112 10.1046 112 9V2Z" fill="#1B4332"/>
<path d="M112 2C112 0.895431 112.895 0 114 0H121C122.105 0 123 0.895431 123 2V9C123 10.1046 122.105 11 121 11H114C112.895 11 112 10.1046 112 9V2Z" fill="#1B4332"/>
<path d="M126 2C126 0.895431 126.895 0 128 0H135C136.105 0 137 0.895431 137 2V9C137 10.1046 136.105 11 135 11H128C126.895 11 126 10.1046 126 9V2Z" fill="#1B4332"/>
<path d="M126 2C126 0.895431 126.895 0 128 0H135C136.105 0 137 0.895431 137 2V9C137 10.1046 136.105 11 135 11H128C126.895 11 126 10.1046 126 9V2Z" fill="#1B4332"/>
<path d="M0 2C0 0.895431 0.895431 0 2 0H9C10.1046 0 11 0.895431 11 2V9C11 10.1046 10.1046 11 9 11H2C0.895431 11 0 10.1046 0 9V2Z" fill="#1B4332"/>
<path d="M0 2C0 0.895431 0.895431 0 2 0H9C10.1046 0 11 0.895431 11 2V9C11 10.1046 10.1046 11 9 11H2C0.895431 11 0 10.1046 0 9V2Z" fill="#1B4332"/>
<path d="M14 2C14 0.895431 14.8954 0 16 0H23C24.1046 0 25 0.895431 25 2V9C25 10.1046 24.1046 11 23 11H16C14.8954 11 14 10.1046 14 9V2Z" fill="#1B4332"/>
<path d="M14 2C14 0.895431 14.8954 0 16 0H23C24.1046 0 25 0.895431 25 2V9C25 10.1046 24.1046 11 23 11H16C14.8954 11 14 10.1046 14 9V2Z" fill="#1B4332"/>
<path d="M28 2C28 0.895431 28.8954 0 30 0H37C38.1046 0 39 0.895431 39 2V9C39 10.1046 38.1046 11 37 11H30C28.8954 11 28 10.1046 28 9V2Z" fill="#1B4332"/>
<path d="M28 2C28 0.895431 28.8954 0 30 0H37C38.1046 0 39 0.895431 39 2V9C39 10.1046 38.1046 11 37 11H30C28.8954 11 28 10.1046 28 9V2Z" fill="#1B4332"/>
<path d="M42 2C42 0.895431 42.8954 0 44 0H51C52.1046 0 53 0.895431 53 2V9C53 10.1046 52.1046 11 51 11H44C42.8954 11 42 10.1046 42 9V2Z" fill="#1B4332"/>
<path d="M42 2C42 0.895431 42.8954 0 44 0H51C52.1046 0 53 0.895431 53 2V9C53 10.1046 52.1046 11 51 11H44C42.8954 11 42 10.1046 42 9V2Z" fill="#1B4332"/>
<path d="M56 2C56 0.895431 56.8954 0 58 0H65C66.1046 0 67 0.895431 67 2V9C67 10.1046 66.1046 11 65 11H58C56.8954 11 56 10.1046 56 9V2Z" fill="#1B4332"/>
<path d="M56 2C56 0.895431 56.8954 0 58 0H65C66.1046 0 67 0.895431 67 2V9C67 10.1046 66.1046 11 65 11H58C56.8954 11 56 10.1046 56 9V2Z" fill="#1B4332"/>
<path d="M70 2C70 0.895431 70.8954 0 72 0H79C80.1046 0 81 0.895431 81 2V9C81 10.1046 80.1046 11 79 11H72C70.8954 11 70 10.1046 70 9V2Z" fill="#1B4332"/>
<path d="M70 2C70 0.895431 70.8954 0 72 0H79C80.1046 0 81 0.895431 81 2V9C81 10.1046 80.1046 11 79 11H72C70.8954 11 70 10.1046 70 9V2Z" fill="#1B4332"/>
<path d="M84 2C84 0.895431 84.8954 0 86 0H93C94.1046 0 95 0.895431 95 2V9C95 10.1046 94.1046 11 93 11H86C84.8954 11 84 10.1046 84 9V2Z" fill="#1B4332"/>
<path d="M84 2C84 0.895431 84.8954 0 86 0H93C94.1046 0 95 0.895431 95 2V9C95 10.1046 94.1046 11 93 11H86C84.8954 11 84 10.1046 84 9V2Z" fill="#1B4332"/>
<path d="M98 2C98 0.895431 98.8954 0 100 0H107C108.105 0 109 0.895431 109 2V9C109 10.1046 108.105 11 107 11H100C98.8954 11 98 10.1046 98 9V2Z" fill="#1B4332"/>
<path d="M98 2C98 0.895431 98.8954 0 100 0H107C108.105 0 109 0.895431 109 2V9C109 10.1046 108.105 11 107 11H100C98.8954 11 98 10.1046 98 9V2Z" fill="#1B4332"/>
<path d="M112 2C112 0.895431 112.895 0 114 0H121C122.105 0 123 0.895431 123 2V9C123 10.1046 122.105 11 121 11H114C112.895 11 112 10.1046 112 9V2Z" fill="#1B4332"/>
<path d="M112 2C112 0.895431 112.895 0 114 0H121C122.105 0 123 0.895431 123 2V9C123 10.1046 122.105 11 121 11H114C112.895 11 112 10.1046 112 9V2Z" fill="#1B4332"/>
<path d="M126 2C126 0.895431 126.895 0 128 0H135C136.105 0 137 0.895431 137 2V9C137 10.1046 136.105 11 135 11H128C126.895 11 126 10.1046 126 9V2Z" fill="#1B4332"/>
<path d="M126 2C126 0.895431 126.895 0 128 0H135C136.105 0 137 0.895431 137 2V9C137 10.1046 136.105 11 135 11H128C126.895 11 126 10.1046 126 9V2Z" fill="#1B4332"/>
<path d="M0 128C0 126.895 0.895431 126 2 126H9C10.1046 126 11 126.895 11 128V135C11 136.105 10.1046 137 9 137H2C0.895431 137 0 136.105 0 135V128Z" fill="#1B4332"/>
<path d="M0 128C0 126.895 0.895431 126 2 126H9C10.1046 126 11 126.895 11 128V135C11 136.105 10.1046 137 9 137H2C0.895431 137 0 136.105 0 135V128Z" fill="#1B4332"/>
<path d="M14 128C14 126.895 14.8954 126 16 126H23C24.1046 126 25 126.895 25 128V135C25 136.105 24.1046 137 23 137H16C14.8954 137 14 136.105 14 135V128Z" fill="#1B4332"/>
<path d="M14 128C14 126.895 14.8954 126 16 126H23C24.1046 126 25 126.895 25 128V135C25 136.105 24.1046 137 23 137H16C14.8954 137 14 136.105 14 135V128Z" fill="#1B4332"/>
<path d="M28 128C28 126.895 28.8954 126 30 126H37C38.1046 126 39 126.895 39 128V135C39 136.105 38.1046 137 37 137H30C28.8954 137 28 136.105 28 135V128Z" fill="#1B4332"/>
<path d="M28 128C28 126.895 28.8954 126 30 126H37C38.1046 126 39 126.895 39 128V135C39 136.105 38.1046 137 37 137H30C28.8954 137 28 136.105 28 135V128Z" fill="#1B4332"/>
<path d="M42 128C42 126.895 42.8954 126 44 126H51C52.1046 126 53 126.895 53 128V135C53 136.105 52.1046 137 51 137H44C42.8954 137 42 136.105 42 135V128Z" fill="#1B4332"/>
<path d="M42 128C42 126.895 42.8954 126 44 126H51C52.1046 126 53 126.895 53 128V135C53 136.105 52.1046 137 51 137H44C42.8954 137 42 136.105 42 135V128Z" fill="#1B4332"/>
<path d="M56 128C56 126.895 56.8954 126 58 126H65C66.1046 126 67 126.895 67 128V135C67 136.105 66.1046 137 65 137H58C56.8954 137 56 136.105 56 135V128Z" fill="#1B4332"/>
<path d="M56 128C56 126.895 56.8954 126 58 126H65C66.1046 126 67 126.895 67 128V135C67 136.105 66.1046 137 65 137H58C56.8954 137 56 136.105 56 135V128Z" fill="#1B4332"/>
<path d="M70 128C70 126.895 70.8954 126 72 126H79C80.1046 126 81 126.895 81 128V135C81 136.105 80.1046 137 79 137H72C70.8954 137 70 136.105 70 135V128Z" fill="#1B4332"/>
<path d="M70 128C70 126.895 70.8954 126 72 126H79C80.1046 126 81 126.895 81 128V135C81 136.105 80.1046 137 79 137H72C70.8954 137 70 136.105 70 135V128Z" fill="#1B4332"/>
<path d="M84 128C84 126.895 84.8954 126 86 126H93C94.1046 126 95 126.895 95 128V135C95 136.105 94.1046 137 93 137H86C84.8954 137 84 136.105 84 135V128Z" fill="#1B4332"/>
<path d="M84 128C84 126.895 84.8954 126 86 126H93C94.1046 126 95 126.895 95 128V135C95 136.105 94.1046 137 93 137H86C84.8954 137 84 136.105 84 135V128Z" fill="#1B4332"/>
<path d="M98 128C98 126.895 98.8954 126 100 126H107C108.105 126 109 126.895 109 128V135C109 136.105 108.105 137 107 137H100C98.8954 137 98 136.105 98 135V128Z" fill="#1B4332"/>
<path d="M98 128C98 126.895 98.8954 126 100 126H107C108.105 126 109 126.895 109 128V135C109 136.105 108.105 137 107 137H100C98.8954 137 98 136.105 98 135V128Z" fill="#1B4332"/>
<path d="M112 128C112 126.895 112.895 126 114 126H121C122.105 126 123 126.895 123 128V135C123 136.105 122.105 137 121 137H114C112.895 137 112 136.105 112 135V128Z" fill="#1B4332"/>
<path d="M112 128C112 126.895 112.895 126 114 126H121C122.105 126 123 126.895 123 128V135C123 136.105 122.105 137 121 137H114C112.895 137 112 136.105 112 135V128Z" fill="#1B4332"/>
<path d="M126 128C126 126.895 126.895 126 128 126H135C136.105 126 137 126.895 137 128V135C137 136.105 136.105 137 135 137H128C126.895 137 126 136.105 126 135V128Z" fill="#1B4332"/>
<path d="M126 128C126 126.895 126.895 126 128 126H135C136.105 126 137 126.895 137 128V135C137 136.105 136.105 137 135 137H128C126.895 137 126 136.105 126 135V128Z" fill="#1B4332"/>
<path d="M0 16C0 14.8954 0.895431 14 2 14H9C10.1046 14 11 14.8954 11 16V23C11 24.1046 10.1046 25 9 25H2C0.895431 25 0 24.1046 0 23V16Z" fill="#1B4332"/>
<path d="M0 16C0 14.8954 0.895431 14 2 14H9C10.1046 14 11 14.8954 11 16V23C11 24.1046 10.1046 25 9 25H2C0.895431 25 0 24.1046 0 23V16Z" fill="#1B4332"/>
<path d="M14 16C14 14.8954 14.8954 14 16 14H23C24.1046 14 25 14.8954 25 16V23C25 24.1046 24.1046 25 23 25H16C14.8954 25 14 24.1046 14 23V16Z" fill="#3AAD52"/>
<path d="M14 16C14 14.8954 14.8954 14 16 14H23C24.1046 14 25 14.8954 25 16V23C25 24.1046 24.1046 25 23 25H16C14.8954 25 14 24.1046 14 23V16Z" fill="#3AAD52"/>
<path d="M28 16C28 14.8954 28.8954 14 30 14H37C38.1046 14 39 14.8954 39 16V23C39 24.1046 38.1046 25 37 25H30C28.8954 25 28 24.1046 28 23V16Z" fill="#3AAD52"/>
<path d="M28 16C28 14.8954 28.8954 14 30 14H37C38.1046 14 39 14.8954 39 16V23C39 24.1046 38.1046 25 37 25H30C28.8954 25 28 24.1046 28 23V16Z" fill="#3AAD52"/>
<path d="M42 16C42 14.8954 42.8954 14 44 14H51C52.1046 14 53 14.8954 53 16V23C53 24.1046 52.1046 25 51 25H44C42.8954 25 42 24.1046 42 23V16Z" fill="#3AAD52"/>
<path d="M42 16C42 14.8954 42.8954 14 44 14H51C52.1046 14 53 14.8954 53 16V23C53 24.1046 52.1046 25 51 25H44C42.8954 25 42 24.1046 42 23V16Z" fill="#3AAD52"/>
<path d="M56 16C56 14.8954 56.8954 14 58 14H65C66.1046 14 67 14.8954 67 16V23C67 24.1046 66.1046 25 65 25H58C56.8954 25 56 24.1046 56 23V16Z" fill="#3AAD52"/>
<path d="M56 16C56 14.8954 56.8954 14 58 14H65C66.1046 14 67 14.8954 67 16V23C67 24.1046 66.1046 25 65 25H58C56.8954 25 56 24.1046 56 23V16Z" fill="#3AAD52"/>
<path d="M70 16C70 14.8954 70.8954 14 72 14H79C80.1046 14 81 14.8954 81 16V23C81 24.1046 80.1046 25 79 25H72C70.8954 25 70 24.1046 70 23V16Z" fill="#3AAD52"/>
<path d="M70 16C70 14.8954 70.8954 14 72 14H79C80.1046 14 81 14.8954 81 16V23C81 24.1046 80.1046 25 79 25H72C70.8954 25 70 24.1046 70 23V16Z" fill="#3AAD52"/>
<path d="M84 16C84 14.8954 84.8954 14 86 14H93C94.1046 14 95 14.8954 95 16V23C95 24.1046 94.1046 25 93 25H86C84.8954 25 84 24.1046 84 23V16Z" fill="#3AAD52"/>
<path d="M84 16C84 14.8954 84.8954 14 86 14H93C94.1046 14 95 14.8954 95 16V23C95 24.1046 94.1046 25 93 25H86C84.8954 25 84 24.1046 84 23V16Z" fill="#3AAD52"/>
<path d="M98 16C98 14.8954 98.8954 14 100 14H107C108.105 14 109 14.8954 109 16V23C109 24.1046 108.105 25 107 25H100C98.8954 25 98 24.1046 98 23V16Z" fill="#3AAD52"/>
<path d="M98 16C98 14.8954 98.8954 14 100 14H107C108.105 14 109 14.8954 109 16V23C109 24.1046 108.105 25 107 25H100C98.8954 25 98 24.1046 98 23V16Z" fill="#3AAD52"/>
<path d="M112 16C112 14.8954 112.895 14 114 14H121C122.105 14 123 14.8954 123 16V23C123 24.1046 122.105 25 121 25H114C112.895 25 112 24.1046 112 23V16Z" fill="#3AAD52"/>
<path d="M112 16C112 14.8954 112.895 14 114 14H121C122.105 14 123 14.8954 123 16V23C123 24.1046 122.105 25 121 25H114C112.895 25 112 24.1046 112 23V16Z" fill="#3AAD52"/>
<path d="M126 16C126 14.8954 126.895 14 128 14H135C136.105 14 137 14.8954 137 16V23C137 24.1046 136.105 25 135 25H128C126.895 25 126 24.1046 126 23V16Z" fill="#1B4332"/>
<path d="M126 16C126 14.8954 126.895 14 128 14H135C136.105 14 137 14.8954 137 16V23C137 24.1046 136.105 25 135 25H128C126.895 25 126 24.1046 126 23V16Z" fill="#1B4332"/>
<path d="M0 30C0 28.8954 0.895431 28 2 28H9C10.1046 28 11 28.8954 11 30V37C11 38.1046 10.1046 39 9 39H2C0.895431 39 0 38.1046 0 37V30Z" fill="#1B4332"/>
<path d="M0 30C0 28.8954 0.895431 28 2 28H9C10.1046 28 11 28.8954 11 30V37C11 38.1046 10.1046 39 9 39H2C0.895431 39 0 38.1046 0 37V30Z" fill="#1B4332"/>
<path d="M14 30C14 28.8954 14.8954 28 16 28H23C24.1046 28 25 28.8954 25 30V37C25 38.1046 24.1046 39 23 39H16C14.8954 39 14 38.1046 14 37V30Z" fill="#3AAD52"/>
<path d="M14 30C14 28.8954 14.8954 28 16 28H23C24.1046 28 25 28.8954 25 30V37C25 38.1046 24.1046 39 23 39H16C14.8954 39 14 38.1046 14 37V30Z" fill="#3AAD52"/>
<path d="M28 30C28 28.8954 28.8954 28 30 28H37C38.1046 28 39 28.8954 39 30V37C39 38.1046 38.1046 39 37 39H30C28.8954 39 28 38.1046 28 37V30Z" fill="#3AAD52"/>
<path d="M28 30C28 28.8954 28.8954 28 30 28H37C38.1046 28 39 28.8954 39 30V37C39 38.1046 38.1046 39 37 39H30C28.8954 39 28 38.1046 28 37V30Z" fill="#3AAD52"/>
<path d="M42 30C42 28.8954 42.8954 28 44 28H51C52.1046 28 53 28.8954 53 30V37C53 38.1046 52.1046 39 51 39H44C42.8954 39 42 38.1046 42 37V30Z" fill="#3AAD52"/>
<path d="M42 30C42 28.8954 42.8954 28 44 28H51C52.1046 28 53 28.8954 53 30V37C53 38.1046 52.1046 39 51 39H44C42.8954 39 42 38.1046 42 37V30Z" fill="#3AAD52"/>
<path d="M56 30C56 28.8954 56.8954 28 58 28H65C66.1046 28 67 28.8954 67 30V37C67 38.1046 66.1046 39 65 39H58C56.8954 39 56 38.1046 56 37V30Z" fill="#3AAD52"/>
<path d="M56 30C56 28.8954 56.8954 28 58 28H65C66.1046 28 67 28.8954 67 30V37C67 38.1046 66.1046 39 65 39H58C56.8954 39 56 38.1046 56 37V30Z" fill="#3AAD52"/>
<path d="M70 30C70 28.8954 70.8954 28 72 28H79C80.1046 28 81 28.8954 81 30V37C81 38.1046 80.1046 39 79 39H72C70.8954 39 70 38.1046 70 37V30Z" fill="#3AAD52"/>
<path d="M70 30C70 28.8954 70.8954 28 72 28H79C80.1046 28 81 28.8954 81 30V37C81 38.1046 80.1046 39 79 39H72C70.8954 39 70 38.1046 70 37V30Z" fill="#3AAD52"/>
<path d="M84 30C84 28.8954 84.8954 28 86 28H93C94.1046 28 95 28.8954 95 30V37C95 38.1046 94.1046 39 93 39H86C84.8954 39 84 38.1046 84 37V30Z" fill="#3AAD52"/>
<path d="M84 30C84 28.8954 84.8954 28 86 28H93C94.1046 28 95 28.8954 95 30V37C95 38.1046 94.1046 39 93 39H86C84.8954 39 84 38.1046 84 37V30Z" fill="#3AAD52"/>
<path d="M98 30C98 28.8954 98.8954 28 100 28H107C108.105 28 109 28.8954 109 30V37C109 38.1046 108.105 39 107 39H100C98.8954 39 98 38.1046 98 37V30Z" fill="#3AAD52"/>
<path d="M98 30C98 28.8954 98.8954 28 100 28H107C108.105 28 109 28.8954 109 30V37C109 38.1046 108.105 39 107 39H100C98.8954 39 98 38.1046 98 37V30Z" fill="#3AAD52"/>
<path d="M112 30C112 28.8954 112.895 28 114 28H121C122.105 28 123 28.8954 123 30V37C123 38.1046 122.105 39 121 39H114C112.895 39 112 38.1046 112 37V30Z" fill="#3AAD52"/>
<path d="M112 30C112 28.8954 112.895 28 114 28H121C122.105 28 123 28.8954 123 30V37C123 38.1046 122.105 39 121 39H114C112.895 39 112 38.1046 112 37V30Z" fill="#3AAD52"/>
<path d="M126 30C126 28.8954 126.895 28 128 28H135C136.105 28 137 28.8954 137 30V37C137 38.1046 136.105 39 135 39H128C126.895 39 126 38.1046 126 37V30Z" fill="#1B4332"/>
<path d="M126 30C126 28.8954 126.895 28 128 28H135C136.105 28 137 28.8954 137 30V37C137 38.1046 136.105 39 135 39H128C126.895 39 126 38.1046 126 37V30Z" fill="#1B4332"/>
<path d="M0 44C0 42.8954 0.895431 42 2 42H9C10.1046 42 11 42.8954 11 44V51C11 52.1046 10.1046 53 9 53H2C0.895431 53 0 52.1046 0 51V44Z" fill="#1B4332"/>
<path d="M0 44C0 42.8954 0.895431 42 2 42H9C10.1046 42 11 42.8954 11 44V51C11 52.1046 10.1046 53 9 53H2C0.895431 53 0 52.1046 0 51V44Z" fill="#1B4332"/>
<path d="M14 44C14 42.8954 14.8954 42 16 42H23C24.1046 42 25 42.8954 25 44V51C25 52.1046 24.1046 53 23 53H16C14.8954 53 14 52.1046 14 51V44Z" fill="#3AAD52"/>
<path d="M14 44C14 42.8954 14.8954 42 16 42H23C24.1046 42 25 42.8954 25 44V51C25 52.1046 24.1046 53 23 53H16C14.8954 53 14 52.1046 14 51V44Z" fill="#3AAD52"/>
<path d="M28 44C28 42.8954 28.8954 42 30 42H37C38.1046 42 39 42.8954 39 44V51C39 52.1046 38.1046 53 37 53H30C28.8954 53 28 52.1046 28 51V44Z" fill="#3AAD52"/>
<path d="M28 44C28 42.8954 28.8954 42 30 42H37C38.1046 42 39 42.8954 39 44V51C39 52.1046 38.1046 53 37 53H30C28.8954 53 28 52.1046 28 51V44Z" fill="#3AAD52"/>
<path d="M42 44C42 42.8954 42.8954 42 44 42H51C52.1046 42 53 42.8954 53 44V51C53 52.1046 52.1046 53 51 53H44C42.8954 53 42 52.1046 42 51V44Z" fill="#3AAD52"/>
<path d="M42 44C42 42.8954 42.8954 42 44 42H51C52.1046 42 53 42.8954 53 44V51C53 52.1046 52.1046 53 51 53H44C42.8954 53 42 52.1046 42 51V44Z" fill="#3AAD52"/>
<path d="M56 44C56 42.8954 56.8954 42 58 42H65C66.1046 42 67 42.8954 67 44V51C67 52.1046 66.1046 53 65 53H58C56.8954 53 56 52.1046 56 51V44Z" fill="#3AAD52"/>
<path d="M56 44C56 42.8954 56.8954 42 58 42H65C66.1046 42 67 42.8954 67 44V51C67 52.1046 66.1046 53 65 53H58C56.8954 53 56 52.1046 56 51V44Z" fill="#3AAD52"/>
<path d="M70 44C70 42.8954 70.8954 42 72 42H79C80.1046 42 81 42.8954 81 44V51C81 52.1046 80.1046 53 79 53H72C70.8954 53 70 52.1046 70 51V44Z" fill="#3AAD52"/>
<path d="M70 44C70 42.8954 70.8954 42 72 42H79C80.1046 42 81 42.8954 81 44V51C81 52.1046 80.1046 53 79 53H72C70.8954 53 70 52.1046 70 51V44Z" fill="#3AAD52"/>
<path d="M84 44C84 42.8954 84.8954 42 86 42H93C94.1046 42 95 42.8954 95 44V51C95 52.1046 94.1046 53 93 53H86C84.8954 53 84 52.1046 84 51V44Z" fill="#3AAD52"/>
<path d="M84 44C84 42.8954 84.8954 42 86 42H93C94.1046 42 95 42.8954 95 44V51C95 52.1046 94.1046 53 93 53H86C84.8954 53 84 52.1046 84 51V44Z" fill="#3AAD52"/>
<path d="M98 44C98 42.8954 98.8954 42 100 42H107C108.105 42 109 42.8954 109 44V51C109 52.1046 108.105 53 107 53H100C98.8954 53 98 52.1046 98 51V44Z" fill="#3AAD52"/>
<path d="M98 44C98 42.8954 98.8954 42 100 42H107C108.105 42 109 42.8954 109 44V51C109 52.1046 108.105 53 107 53H100C98.8954 53 98 52.1046 98 51V44Z" fill="#3AAD52"/>
<path d="M112 44C112 42.8954 112.895 42 114 42H121C122.105 42 123 42.8954 123 44V51C123 52.1046 122.105 53 121 53H114C112.895 53 112 52.1046 112 51V44Z" fill="#3AAD52"/>
<path d="M112 44C112 42.8954 112.895 42 114 42H121C122.105 42 123 42.8954 123 44V51C123 52.1046 122.105 53 121 53H114C112.895 53 112 52.1046 112 51V44Z" fill="#3AAD52"/>
<path d="M126 44C126 42.8954 126.895 42 128 42H135C136.105 42 137 42.8954 137 44V51C137 52.1046 136.105 53 135 53H128C126.895 53 126 52.1046 126 51V44Z" fill="#1B4332"/>
<path d="M126 44C126 42.8954 126.895 42 128 42H135C136.105 42 137 42.8954 137 44V51C137 52.1046 136.105 53 135 53H128C126.895 53 126 52.1046 126 51V44Z" fill="#1B4332"/>
<path d="M0 58C0 56.8954 0.895431 56 2 56H9C10.1046 56 11 56.8954 11 58V65C11 66.1046 10.1046 67 9 67H2C0.895431 67 0 66.1046 0 65V58Z" fill="#1B4332"/>
<path d="M0 58C0 56.8954 0.895431 56 2 56H9C10.1046 56 11 56.8954 11 58V65C11 66.1046 10.1046 67 9 67H2C0.895431 67 0 66.1046 0 65V58Z" fill="#1B4332"/>
<path d="M14 58C14 56.8954 14.8954 56 16 56H23C24.1046 56 25 56.8954 25 58V65C25 66.1046 24.1046 67 23 67H16C14.8954 67 14 66.1046 14 65V58Z" fill="#3AAD52"/>
<path d="M14 58C14 56.8954 14.8954 56 16 56H23C24.1046 56 25 56.8954 25 58V65C25 66.1046 24.1046 67 23 67H16C14.8954 67 14 66.1046 14 65V58Z" fill="#3AAD52"/>
<path d="M28 58C28 56.8954 28.8954 56 30 56H37C38.1046 56 39 56.8954 39 58V65C39 66.1046 38.1046 67 37 67H30C28.8954 67 28 66.1046 28 65V58Z" fill="#3AAD52"/>
<path d="M28 58C28 56.8954 28.8954 56 30 56H37C38.1046 56 39 56.8954 39 58V65C39 66.1046 38.1046 67 37 67H30C28.8954 67 28 66.1046 28 65V58Z" fill="#3AAD52"/>
<path d="M42 58C42 56.8954 42.8954 56 44 56H51C52.1046 56 53 56.8954 53 58V65C53 66.1046 52.1046 67 51 67H44C42.8954 67 42 66.1046 42 65V58Z" fill="#3AAD52"/>
<path d="M42 58C42 56.8954 42.8954 56 44 56H51C52.1046 56 53 56.8954 53 58V65C53 66.1046 52.1046 67 51 67H44C42.8954 67 42 66.1046 42 65V58Z" fill="#3AAD52"/>
<path d="M56 58C56 56.8954 56.8954 56 58 56H65C66.1046 56 67 56.8954 67 58V65C67 66.1046 66.1046 67 65 67H58C56.8954 67 56 66.1046 56 65V58Z" fill="#3AAD52"/>
<path d="M56 58C56 56.8954 56.8954 56 58 56H65C66.1046 56 67 56.8954 67 58V65C67 66.1046 66.1046 67 65 67H58C56.8954 67 56 66.1046 56 65V58Z" fill="#3AAD52"/>
<path d="M70 58C70 56.8954 70.8954 56 72 56H79C80.1046 56 81 56.8954 81 58V65C81 66.1046 80.1046 67 79 67H72C70.8954 67 70 66.1046 70 65V58Z" fill="#3AAD52"/>
<path d="M70 58C70 56.8954 70.8954 56 72 56H79C80.1046 56 81 56.8954 81 58V65C81 66.1046 80.1046 67 79 67H72C70.8954 67 70 66.1046 70 65V58Z" fill="#3AAD52"/>
<path d="M84 58C84 56.8954 84.8954 56 86 56H93C94.1046 56 95 56.8954 95 58V65C95 66.1046 94.1046 67 93 67H86C84.8954 67 84 66.1046 84 65V58Z" fill="#3AAD52"/>
<path d="M84 58C84 56.8954 84.8954 56 86 56H93C94.1046 56 95 56.8954 95 58V65C95 66.1046 94.1046 67 93 67H86C84.8954 67 84 66.1046 84 65V58Z" fill="#3AAD52"/>
<path d="M98 58C98 56.8954 98.8954 56 100 56H107C108.105 56 109 56.8954 109 58V65C109 66.1046 108.105 67 107 67H100C98.8954 67 98 66.1046 98 65V58Z" fill="#3AAD52"/>
<path d="M98 58C98 56.8954 98.8954 56 100 56H107C108.105 56 109 56.8954 109 58V65C109 66.1046 108.105 67 107 67H100C98.8954 67 98 66.1046 98 65V58Z" fill="#3AAD52"/>
<path d="M112 58C112 56.8954 112.895 56 114 56H121C122.105 56 123 56.8954 123 58V65C123 66.1046 122.105 67 121 67H114C112.895 67 112 66.1046 112 65V58Z" fill="#3AAD52"/>
<path d="M112 58C112 56.8954 112.895 56 114 56H121C122.105 56 123 56.8954 123 58V65C123 66.1046 122.105 67 121 67H114C112.895 67 112 66.1046 112 65V58Z" fill="#3AAD52"/>
<path d="M126 58C126 56.8954 126.895 56 128 56H135C136.105 56 137 56.8954 137 58V65C137 66.1046 136.105 67 135 67H128C126.895 67 126 66.1046 126 65V58Z" fill="#1B4332"/>
<path d="M126 58C126 56.8954 126.895 56 128 56H135C136.105 56 137 56.8954 137 58V65C137 66.1046 136.105 67 135 67H128C126.895 67 126 66.1046 126 65V58Z" fill="#1B4332"/>
<path d="M0 72C0 70.8954 0.895431 70 2 70H9C10.1046 70 11 70.8954 11 72V79C11 80.1046 10.1046 81 9 81H2C0.895431 81 0 80.1046 0 79V72Z" fill="#1B4332"/>
<path d="M0 72C0 70.8954 0.895431 70 2 70H9C10.1046 70 11 70.8954 11 72V79C11 80.1046 10.1046 81 9 81H2C0.895431 81 0 80.1046 0 79V72Z" fill="#1B4332"/>
<path d="M14 72C14 70.8954 14.8954 70 16 70H23C24.1046 70 25 70.8954 25 72V79C25 80.1046 24.1046 81 23 81H16C14.8954 81 14 80.1046 14 79V72Z" fill="#3AAD52"/>
<path d="M14 72C14 70.8954 14.8954 70 16 70H23C24.1046 70 25 70.8954 25 72V79C25 80.1046 24.1046 81 23 81H16C14.8954 81 14 80.1046 14 79V72Z" fill="#3AAD52"/>
<path d="M28 72C28 70.8954 28.8954 70 30 70H37C38.1046 70 39 70.8954 39 72V79C39 80.1046 38.1046 81 37 81H30C28.8954 81 28 80.1046 28 79V72Z" fill="#3AAD52"/>
<path d="M28 72C28 70.8954 28.8954 70 30 70H37C38.1046 70 39 70.8954 39 72V79C39 80.1046 38.1046 81 37 81H30C28.8954 81 28 80.1046 28 79V72Z" fill="#3AAD52"/>
<path d="M42 72C42 70.8954 42.8954 70 44 70H51C52.1046 70 53 70.8954 53 72V79C53 80.1046 52.1046 81 51 81H44C42.8954 81 42 80.1046 42 79V72Z" fill="#3AAD52"/>
<path d="M42 72C42 70.8954 42.8954 70 44 70H51C52.1046 70 53 70.8954 53 72V79C53 80.1046 52.1046 81 51 81H44C42.8954 81 42 80.1046 42 79V72Z" fill="#3AAD52"/>
<path d="M56 72C56 70.8954 56.8954 70 58 70H65C66.1046 70 67 70.8954 67 72V79C67 80.1046 66.1046 81 65 81H58C56.8954 81 56 80.1046 56 79V72Z" fill="#3AAD52"/>
<path d="M56 72C56 70.8954 56.8954 70 58 70H65C66.1046 70 67 70.8954 67 72V79C67 80.1046 66.1046 81 65 81H58C56.8954 81 56 80.1046 56 79V72Z" fill="#3AAD52"/>
<path d="M70 72C70 70.8954 70.8954 70 72 70H79C80.1046 70 81 70.8954 81 72V79C81 80.1046 80.1046 81 79 81H72C70.8954 81 70 80.1046 70 79V72Z" fill="#3AAD52"/>
<path d="M70 72C70 70.8954 70.8954 70 72 70H79C80.1046 70 81 70.8954 81 72V79C81 80.1046 80.1046 81 79 81H72C70.8954 81 70 80.1046 70 79V72Z" fill="#3AAD52"/>
<path d="M84 72C84 70.8954 84.8954 70 86 70H93C94.1046 70 95 70.8954 95 72V79C95 80.1046 94.1046 81 93 81H86C84.8954 81 84 80.1046 84 79V72Z" fill="#3AAD52"/>
<path d="M84 72C84 70.8954 84.8954 70 86 70H93C94.1046 70 95 70.8954 95 72V79C95 80.1046 94.1046 81 93 81H86C84.8954 81 84 80.1046 84 79V72Z" fill="#3AAD52"/>
<path d="M98 72C98 70.8954 98.8954 70 100 70H107C108.105 70 109 70.8954 109 72V79C109 80.1046 108.105 81 107 81H100C98.8954 81 98 80.1046 98 79V72Z" fill="#3AAD52"/>
<path d="M98 72C98 70.8954 98.8954 70 100 70H107C108.105 70 109 70.8954 109 72V79C109 80.1046 108.105 81 107 81H100C98.8954 81 98 80.1046 98 79V72Z" fill="#3AAD52"/>
<path d="M112 72C112 70.8954 112.895 70 114 70H121C122.105 70 123 70.8954 123 72V79C123 80.1046 122.105 81 121 81H114C112.895 81 112 80.1046 112 79V72Z" fill="#3AAD52"/>
<path d="M112 72C112 70.8954 112.895 70 114 70H121C122.105 70 123 70.8954 123 72V79C123 80.1046 122.105 81 121 81H114C112.895 81 112 80.1046 112 79V72Z" fill="#3AAD52"/>
<path d="M126 72C126 70.8954 126.895 70 128 70H135C136.105 70 137 70.8954 137 72V79C137 80.1046 136.105 81 135 81H128C126.895 81 126 80.1046 126 79V72Z" fill="#1B4332"/>
<path d="M126 72C126 70.8954 126.895 70 128 70H135C136.105 70 137 70.8954 137 72V79C137 80.1046 136.105 81 135 81H128C126.895 81 126 80.1046 126 79V72Z" fill="#1B4332"/>
<path d="M0 86C0 84.8954 0.895431 84 2 84H9C10.1046 84 11 84.8954 11 86V93C11 94.1046 10.1046 95 9 95H2C0.895431 95 0 94.1046 0 93V86Z" fill="#1B4332"/>
<path d="M0 86C0 84.8954 0.895431 84 2 84H9C10.1046 84 11 84.8954 11 86V93C11 94.1046 10.1046 95 9 95H2C0.895431 95 0 94.1046 0 93V86Z" fill="#1B4332"/>
<path d="M14 86C14 84.8954 14.8954 84 16 84H23C24.1046 84 25 84.8954 25 86V93C25 94.1046 24.1046 95 23 95H16C14.8954 95 14 94.1046 14 93V86Z" fill="#3AAD52"/>
<path d="M14 86C14 84.8954 14.8954 84 16 84H23C24.1046 84 25 84.8954 25 86V93C25 94.1046 24.1046 95 23 95H16C14.8954 95 14 94.1046 14 93V86Z" fill="#3AAD52"/>
<path d="M28 86C28 84.8954 28.8954 84 30 84H37C38.1046 84 39 84.8954 39 86V93C39 94.1046 38.1046 95 37 95H30C28.8954 95 28 94.1046 28 93V86Z" fill="#3AAD52"/>
<path d="M28 86C28 84.8954 28.8954 84 30 84H37C38.1046 84 39 84.8954 39 86V93C39 94.1046 38.1046 95 37 95H30C28.8954 95 28 94.1046 28 93V86Z" fill="#3AAD52"/>
<path d="M42 86C42 84.8954 42.8954 84 44 84H51C52.1046 84 53 84.8954 53 86V93C53 94.1046 52.1046 95 51 95H44C42.8954 95 42 94.1046 42 93V86Z" fill="#3AAD52"/>
<path d="M42 86C42 84.8954 42.8954 84 44 84H51C52.1046 84 53 84.8954 53 86V93C53 94.1046 52.1046 95 51 95H44C42.8954 95 42 94.1046 42 93V86Z" fill="#3AAD52"/>
<path d="M56 86C56 84.8954 56.8954 84 58 84H65C66.1046 84 67 84.8954 67 86V93C67 94.1046 66.1046 95 65 95H58C56.8954 95 56 94.1046 56 93V86Z" fill="#3AAD52"/>
<path d="M56 86C56 84.8954 56.8954 84 58 84H65C66.1046 84 67 84.8954 67 86V93C67 94.1046 66.1046 95 65 95H58C56.8954 95 56 94.1046 56 93V86Z" fill="#3AAD52"/>
<path d="M70 86C70 84.8954 70.8954 84 72 84H79C80.1046 84 81 84.8954 81 86V93C81 94.1046 80.1046 95 79 95H72C70.8954 95 70 94.1046 70 93V86Z" fill="#3AAD52"/>
<path d="M70 86C70 84.8954 70.8954 84 72 84H79C80.1046 84 81 84.8954 81 86V93C81 94.1046 80.1046 95 79 95H72C70.8954 95 70 94.1046 70 93V86Z" fill="#3AAD52"/>
<path d="M84 86C84 84.8954 84.8954 84 86 84H93C94.1046 84 95 84.8954 95 86V93C95 94.1046 94.1046 95 93 95H86C84.8954 95 84 94.1046 84 93V86Z" fill="#3AAD52"/>
<path d="M84 86C84 84.8954 84.8954 84 86 84H93C94.1046 84 95 84.8954 95 86V93C95 94.1046 94.1046 95 93 95H86C84.8954 95 84 94.1046 84 93V86Z" fill="#3AAD52"/>
<path d="M98 86C98 84.8954 98.8954 84 100 84H107C108.105 84 109 84.8954 109 86V93C109 94.1046 108.105 95 107 95H100C98.8954 95 98 94.1046 98 93V86Z" fill="#3AAD52"/>
<path d="M98 86C98 84.8954 98.8954 84 100 84H107C108.105 84 109 84.8954 109 86V93C109 94.1046 108.105 95 107 95H100C98.8954 95 98 94.1046 98 93V86Z" fill="#3AAD52"/>
<path d="M112 86C112 84.8954 112.895 84 114 84H121C122.105 84 123 84.8954 123 86V93C123 94.1046 122.105 95 121 95H114C112.895 95 112 94.1046 112 93V86Z" fill="#3AAD52"/>
<path d="M112 86C112 84.8954 112.895 84 114 84H121C122.105 84 123 84.8954 123 86V93C123 94.1046 122.105 95 121 95H114C112.895 95 112 94.1046 112 93V86Z" fill="#3AAD52"/>
<path d="M126 86C126 84.8954 126.895 84 128 84H135C136.105 84 137 84.8954 137 86V93C137 94.1046 136.105 95 135 95H128C126.895 95 126 94.1046 126 93V86Z" fill="#1B4332"/>
<path d="M126 86C126 84.8954 126.895 84 128 84H135C136.105 84 137 84.8954 137 86V93C137 94.1046 136.105 95 135 95H128C126.895 95 126 94.1046 126 93V86Z" fill="#1B4332"/>
<path d="M0 100C0 98.8954 0.895431 98 2 98H9C10.1046 98 11 98.8954 11 100V107C11 108.105 10.1046 109 9 109H2C0.895431 109 0 108.105 0 107V100Z" fill="#1B4332"/>
<path d="M0 100C0 98.8954 0.895431 98 2 98H9C10.1046 98 11 98.8954 11 100V107C11 108.105 10.1046 109 9 109H2C0.895431 109 0 108.105 0 107V100Z" fill="#1B4332"/>
<path d="M14 100C14 98.8954 14.8954 98 16 98H23C24.1046 98 25 98.8954 25 100V107C25 108.105 24.1046 109 23 109H16C14.8954 109 14 108.105 14 107V100Z" fill="#3AAD52"/>
<path d="M14 100C14 98.8954 14.8954 98 16 98H23C24.1046 98 25 98.8954 25 100V107C25 108.105 24.1046 109 23 109H16C14.8954 109 14 108.105 14 107V100Z" fill="#3AAD52"/>
<path d="M28 100C28 98.8954 28.8954 98 30 98H37C38.1046 98 39 98.8954 39 100V107C39 108.105 38.1046 109 37 109H30C28.8954 109 28 108.105 28 107V100Z" fill="#3AAD52"/>
<path d="M28 100C28 98.8954 28.8954 98 30 98H37C38.1046 98 39 98.8954 39 100V107C39 108.105 38.1046 109 37 109H30C28.8954 109 28 108.105 28 107V100Z" fill="#3AAD52"/>
<path d="M42 100C42 98.8954 42.8954 98 44 98H51C52.1046 98 53 98.8954 53 100V107C53 108.105 52.1046 109 51 109H44C42.8954 109 42 108.105 42 107V100Z" fill="#3AAD52"/>
<path d="M42 100C42 98.8954 42.8954 98 44 98H51C52.1046 98 53 98.8954 53 100V107C53 108.105 52.1046 109 51 109H44C42.8954 109 42 108.105 42 107V100Z" fill="#3AAD52"/>
<path d="M56 100C56 98.8954 56.8954 98 58 98H65C66.1046 98 67 98.8954 67 100V107C67 108.105 66.1046 109 65 109H58C56.8954 109 56 108.105 56 107V100Z" fill="#3AAD52"/>
<path d="M56 100C56 98.8954 56.8954 98 58 98H65C66.1046 98 67 98.8954 67 100V107C67 108.105 66.1046 109 65 109H58C56.8954 109 56 108.105 56 107V100Z" fill="#3AAD52"/>
<path d="M70 100C70 98.8954 70.8954 98 72 98H79C80.1046 98 81 98.8954 81 100V107C81 108.105 80.1046 109 79 109H72C70.8954 109 70 108.105 70 107V100Z" fill="#3AAD52"/>
<path d="M70 100C70 98.8954 70.8954 98 72 98H79C80.1046 98 81 98.8954 81 100V107C81 108.105 80.1046 109 79 109H72C70.8954 109 70 108.105 70 107V100Z" fill="#3AAD52"/>
<path d="M84 100C84 98.8954 84.8954 98 86 98H93C94.1046 98 95 98.8954 95 100V107C95 108.105 94.1046 109 93 109H86C84.8954 109 84 108.105 84 107V100Z" fill="#3AAD52"/>
<path d="M84 100C84 98.8954 84.8954 98 86 98H93C94.1046 98 95 98.8954 95 100V107C95 108.105 94.1046 109 93 109H86C84.8954 109 84 108.105 84 107V100Z" fill="#3AAD52"/>
<path d="M98 100C98 98.8954 98.8954 98 100 98H107C108.105 98 109 98.8954 109 100V107C109 108.105 108.105 109 107 109H100C98.8954 109 98 108.105 98 107V100Z" fill="#3AAD52"/>
<path d="M98 100C98 98.8954 98.8954 98 100 98H107C108.105 98 109 98.8954 109 100V107C109 108.105 108.105 109 107 109H100C98.8954 109 98 108.105 98 107V100Z" fill="#3AAD52"/>
<path d="M112 100C112 98.8954 112.895 98 114 98H121C122.105 98 123 98.8954 123 100V107C123 108.105 122.105 109 121 109H114C112.895 109 112 108.105 112 107V100Z" fill="#3AAD52"/>
<path d="M112 100C112 98.8954 112.895 98 114 98H121C122.105 98 123 98.8954 123 100V107C123 108.105 122.105 109 121 109H114C112.895 109 112 108.105 112 107V100Z" fill="#3AAD52"/>
<path d="M126 100C126 98.8954 126.895 98 128 98H135C136.105 98 137 98.8954 137 100V107C137 108.105 136.105 109 135 109H128C126.895 109 126 108.105 126 107V100Z" fill="#1B4332"/>
<path d="M126 100C126 98.8954 126.895 98 128 98H135C136.105 98 137 98.8954 137 100V107C137 108.105 136.105 109 135 109H128C126.895 109 126 108.105 126 107V100Z" fill="#1B4332"/>
<path d="M0 114C0 112.895 0.895431 112 2 112H9C10.1046 112 11 112.895 11 114V121C11 122.105 10.1046 123 9 123H2C0.895431 123 0 122.105 0 121V114Z" fill="#1B4332"/>
<path d="M0 114C0 112.895 0.895431 112 2 112H9C10.1046 112 11 112.895 11 114V121C11 122.105 10.1046 123 9 123H2C0.895431 123 0 122.105 0 121V114Z" fill="#1B4332"/>
<path d="M14 114C14 112.895 14.8954 112 16 112H23C24.1046 112 25 112.895 25 114V121C25 122.105 24.1046 123 23 123H16C14.8954 123 14 122.105 14 121V114Z" fill="#3AAD52"/>
<path d="M14 114C14 112.895 14.8954 112 16 112H23C24.1046 112 25 112.895 25 114V121C25 122.105 24.1046 123 23 123H16C14.8954 123 14 122.105 14 121V114Z" fill="#3AAD52"/>
<path d="M28 114C28 112.895 28.8954 112 30 112H37C38.1046 112 39 112.895 39 114V121C39 122.105 38.1046 123 37 123H30C28.8954 123 28 122.105 28 121V114Z" fill="#3AAD52"/>
<path d="M28 114C28 112.895 28.8954 112 30 112H37C38.1046 112 39 112.895 39 114V121C39 122.105 38.1046 123 37 123H30C28.8954 123 28 122.105 28 121V114Z" fill="#3AAD52"/>
<path d="M42 114C42 112.895 42.8954 112 44 112H51C52.1046 112 53 112.895 53 114V121C53 122.105 52.1046 123 51 123H44C42.8954 123 42 122.105 42 121V114Z" fill="#3AAD52"/>
<path d="M42 114C42 112.895 42.8954 112 44 112H51C52.1046 112 53 112.895 53 114V121C53 122.105 52.1046 123 51 123H44C42.8954 123 42 122.105 42 121V114Z" fill="#3AAD52"/>
<path d="M56 114C56 112.895 56.8954 112 58 112H65C66.1046 112 67 112.895 67 114V121C67 122.105 66.1046 123 65 123H58C56.8954 123 56 122.105 56 121V114Z" fill="#3AAD52"/>
<path d="M56 114C56 112.895 56.8954 112 58 112H65C66.1046 112 67 112.895 67 114V121C67 122.105 66.1046 123 65 123H58C56.8954 123 56 122.105 56 121V114Z" fill="#3AAD52"/>
<path d="M70 114C70 112.895 70.8954 112 72 112H79C80.1046 112 81 112.895 81 114V121C81 122.105 80.1046 123 79 123H72C70.8954 123 70 122.105 70 121V114Z" fill="#3AAD52"/>
<path d="M70 114C70 112.895 70.8954 112 72 112H79C80.1046 112 81 112.895 81 114V121C81 122.105 80.1046 123 79 123H72C70.8954 123 70 122.105 70 121V114Z" fill="#3AAD52"/>
<path d="M84 114C84 112.895 84.8954 112 86 112H93C94.1046 112 95 112.895 95 114V121C95 122.105 94.1046 123 93 123H86C84.8954 123 84 122.105 84 121V114Z" fill="#3AAD52"/>
<path d="M84 114C84 112.895 84.8954 112 86 112H93C94.1046 112 95 112.895 95 114V121C95 122.105 94.1046 123 93 123H86C84.8954 123 84 122.105 84 121V114Z" fill="#3AAD52"/>
<path d="M98 114C98 112.895 98.8954 112 100 112H107C108.105 112 109 112.895 109 114V121C109 122.105 108.105 123 107 123H100C98.8954 123 98 122.105 98 121V114Z" fill="#3AAD52"/>
<path d="M98 114C98 112.895 98.8954 112 100 112H107C108.105 112 109 112.895 109 114V121C109 122.105 108.105 123 107 123H100C98.8954 123 98 122.105 98 121V114Z" fill="#3AAD52"/>
<path d="M112 114C112 112.895 112.895 112 114 112H121C122.105 112 123 112.895 123 114V121C123 122.105 122.105 123 121 123H114C112.895 123 112 122.105 112 121V114Z" fill="#3AAD52"/>
<path d="M112 114C112 112.895 112.895 112 114 112H121C122.105 112 123 112.895 123 114V121C123 122.105 122.105 123 121 123H114C112.895 123 112 122.105 112 121V114Z" fill="#3AAD52"/>
<path d="M126 114C126 112.895 126.895 112 128 112H135C136.105 112 137 112.895 137 114V121C137 122.105 136.105 123 135 123H128C126.895 123 126 122.105 126 121V114Z" fill="#1B4332"/>
<path d="M126 114C126 112.895 126.895 112 128 112H135C136.105 112 137 112.895 137 114V121C137 122.105 136.105 123 135 123H128C126.895 123 126 122.105 126 121V114Z" fill="#1B4332"/>
</svg>
